<svg width="21" height="21" viewBox="0 0 21 21" fill="none" xmlns="http://www.w3.org/2000/svg">
<path d="M10.5 0C4.70927 0 0 4.70488 0 10.4902C0 14.6484 2.43435 18.2513 5.95445 19.9473V19.9559H5.97169C7.34181 20.6145 8.87998 20.9847 10.5 20.9847C16.2907 20.9847 21 16.2798 21 10.4945C21 4.70488 16.2907 0 10.5 0ZM10.5 0.860912C15.8125 0.860912 20.1383 5.18269 20.1383 10.4902C20.1383 12.014 19.7807 13.4604 19.1473 14.7431C17.7599 14.0716 16.351 13.5723 14.9292 13.2322V5.19991C14.9292 4.92011 14.7095 4.69627 14.4337 4.69627H12.6672H8.21645H6.44994C6.1785 4.69627 5.95445 4.92011 5.95445 5.19991V13.271C4.57571 13.611 3.20558 14.1017 1.857 14.7474C1.21933 13.4604 0.861715 12.0183 0.861715 10.4902C0.861715 5.18269 5.18753 0.860912 10.5 0.860912ZM2.4128 15.7159C3.55458 15.1521 4.73943 14.7173 5.95876 14.416V18.9788C4.51539 18.2083 3.29606 17.0805 2.4128 15.7159ZM8.21645 19.844V9.09553C8.21645 7.85152 9.23759 6.82273 10.4569 6.82273C11.6762 6.82273 12.6672 7.82999 12.6672 9.06971C12.6672 9.07832 12.6629 9.08693 12.6629 9.09553H12.6672V12.8362C11.6288 12.7157 10.5862 12.6769 9.5435 12.7329L8.68609 13.9769C10.0217 13.865 11.3229 13.8736 12.6069 14.02C12.6198 14.02 12.6284 14.02 12.6414 14.0243C12.65 14.0243 12.6586 14.0243 12.6715 14.0286C12.8956 14.0544 13.7099 14.1577 14.4553 14.3428L12.6715 14.9497V19.8785C11.9735 20.0377 11.2497 20.1281 10.5086 20.1281C9.71153 20.1195 8.94891 20.0205 8.21645 19.844ZM14.9249 19.0391V14.4375C16.1399 14.7431 17.342 15.1908 18.5484 15.7762C17.6436 17.1494 16.3941 18.2772 14.9249 19.0391Z" fill="url(#paint0_linear)"/>
<defs>
<linearGradient id="paint0_linear" x1="0.328125" y1="10.4924" x2="21.3287" y2="10.4639" gradientUnits="userSpaceOnUse">
<stop offset="0.0858" stop-color="#8D29C1"/>
<stop offset="0.2383" stop-color="#942BBB"/>
<stop offset="0.4667" stop-color="#A92FAC"/>
<stop offset="0.7413" stop-color="#CA3793"/>
<stop offset="1" stop-color="#F03F77"/>
<stop offset="1" stop-color="#F03F77"/>
</linearGradient>
</defs>
</svg>
